<svg xmlns="http://www.w3.org/2000/svg" viewBox="0 0 243.57 232.579"><defs><style>.cls-1{fill:#b86f57;}.cls-2{fill:#fff;}</style></defs><title>Recurso 17</title><g id="Capa_2" data-name="Capa 2"><g id="Capa_2-2" data-name="Capa 2"><path class="cls-1" d="M.042,17.018c6.536,15.953,22.4,24.758,38.394,28.966,19.638,5.165,40.019,5.3,59.307,12.136,32.308,11.456,59.688,34.906,76.884,64.464a138.57,138.57,0,0,1,11.782,25.939c3.087,9.284,4.059,18.947,6.745,28.271,1.436,4.988,8.565,3.82,8.839-1.2.453-8.288-2.07-17.119-4.435-25a150.057,150.057,0,0,0-9.7-24.229,155.771,155.771,0,0,0-30.079-40.982,153.556,153.556,0,0,0-42.161-29.47c-16.8-7.858-34.156-11.316-52.5-13.259C40.554,40.269,14.5,37.619,1.07,16.584c-.324-.507-1.281-.184-1.028.434Z" transform="translate(0 -0.27)"/><path class="cls-1" d="M.787,16.039c2.988,7.057,10.1,9.16,17.231,9.847,11.247,1.084,23.128-1.118,34.29-2.407,23.507-2.716,47.262-5.635,70.472.706,41.106,11.229,72.018,44.117,90,81.6,11.377,23.71,16.578,48.793,21.817,74.347,1.2,5.835,9.94,3.329,8.882-2.449-4-21.844-11.422-43.619-20.455-63.865-8.855-19.847-20.3-38.41-35.214-54.294-13.428-14.3-29.585-26.236-47.658-33.968-20.713-8.862-42.522-10.634-64.806-8.7-13.822,1.2-27.513,3.479-41.3,4.952C23.271,22.96,9.015,25.221,1.118,15.783c-.168-.2-.416.056-.331.256Z" transform="translate(0 -0.27)"/><path class="cls-1" d="M170.1,84.01a196.053,196.053,0,0,1,26.932,59.3,181.015,181.015,0,0,1,5.24,32.13c.393,5.276.6,10.557.544,15.848-.063,5.54-.908,11.158-.457,16.677.265,3.254,4.928,4.214,5.892.8,2.967-10.511,1.669-23.417.5-34.153A177.578,177.578,0,0,0,202,141.942a162.374,162.374,0,0,0-31.536-58.216c-.172-.2-.517.063-.369.284Z" transform="translate(0 -0.27)"/><path class="cls-1" d="M175.684,75.755A213.323,213.323,0,0,1,207.6,145.974a200.087,200.087,0,0,1,5.648,38.673c.283,6.078.261,12.165.053,18.246-.212,6.2-1.632,12.774-.789,18.912.4,2.924,4.325,2.112,5.153,0,2.214-5.648,1.817-12.923,1.954-18.912a179.171,179.171,0,0,0-.731-19.9,207.749,207.749,0,0,0-7.236-39,193.447,193.447,0,0,0-35.523-68.581c-.2-.246-.624.079-.441.341Z" transform="translate(0 -0.27)"/><path class="cls-1" d="M192.586,86.619a234.6,234.6,0,0,1,28.252,69.132,228.221,228.221,0,0,1,5.554,36.891c.8,12.477-.613,24.832-.272,37.26.09,3.274,5.125,4.208,5.893.8,2.739-12.163,1.843-25.721.806-38.057a212.93,212.93,0,0,0-6.44-37.539,205.9,205.9,0,0,0-33.227-68.815c-.244-.331-.792-.037-.566.331Z" transform="translate(0 -0.27)"/><path class="cls-2" d="M47.915,10.946l-1.109,2.321c-.257.538.527,1.013.81.473l1.189-2.274c.309-.591-.607-1.115-.89-.52Z" transform="translate(0 -0.27)"/><path class="cls-1" d="M60.428,6.944c2.746,5.5,7.053,10.215,12.856,12.463,1.5.581,2.457-1.811,1.084-2.57-4.969-2.744-9.462-5.864-12.725-10.6a.7.7,0,0,0-1.215.71Z" transform="translate(0 -0.27)"/><path class="cls-1" d="M97.554,2.068c.146,7.679,4.924,15.285,12.113,18.221,2.253.921,3.383-2.887,1.022-3.706-6.835-2.372-11.551-7.27-12.675-14.577-.04-.264-.465-.2-.46.062Z" transform="translate(0 -0.27)"/><path class="cls-1" d="M39.42,4.136c.145,7.68,4.924,15.285,12.113,18.221,2.253.921,3.383-2.887,1.022-3.706C45.72,16.279,41,11.381,39.88,4.074c-.041-.264-.465-.2-.46.062Z" transform="translate(0 -0.27)"/><path class="cls-1" d="M24.073,6.589C24.219,14.268,29,21.874,36.186,24.81c2.253.92,3.383-2.887,1.022-3.706-6.835-2.372-11.551-7.27-12.675-14.577-.04-.264-.465-.2-.46.062Z" transform="translate(0 -0.27)"/><path class="cls-1" d="M7.673,7.525C7.819,15.2,12.6,22.81,19.786,25.746c2.253.92,3.383-2.887,1.022-3.706C13.973,19.668,9.257,14.77,8.133,7.462c-.04-.263-.465-.2-.46.063Z" transform="translate(0 -0.27)"/><path class="cls-1" d="M75.8.5c.145,7.679,4.924,15.285,12.113,18.221,2.253.92,3.383-2.887,1.022-3.706C82.1,12.643,77.381,7.745,76.257.438c-.04-.264-.465-.2-.46.062Z" transform="translate(0 -0.27)"/><path class="cls-1" d="M113.576,5.32c.145,7.679,4.924,15.285,12.113,18.221,2.253.92,3.383-2.887,1.022-3.706-6.835-2.372-11.551-7.27-12.675-14.577-.04-.264-.465-.2-.46.062Z" transform="translate(0 -0.27)"/><path class="cls-1" d="M133.951,8.715c-2.05,7.141-.024,15.873,5.814,20.739a1.914,1.914,0,1,0,2.329-3.019c-5.783-4.315-8.764-10.3-7.691-17.595.043-.29-.366-.423-.452-.125Z" transform="translate(0 -0.27)"/><path class="cls-1" d="M150.113,13.958c-3.06,6.98-2.11,15.822,3.111,21.557,1.663,1.826,4.489-.973,2.718-2.718-5.241-5.168-7.489-11.385-5.4-18.659.071-.247-.32-.429-.429-.18Z" transform="translate(0 -0.27)"/></g></g></svg>